<svg xmlns="http://www.w3.org/2000/svg" viewBox="0 0 128 128">
  <defs>
    <radialGradient id="chronoGlow" cx="50%" cy="50%" r="50%">
      <stop offset="0%" stop-color="#bbf7ff" stop-opacity="1"/>
      <stop offset="60%" stop-color="#60a5fa" stop-opacity="0.95"/>
      <stop offset="100%" stop-color="#1d4ed8" stop-opacity="0.2"/>
    </radialGradient>
    <linearGradient id="chronoDial" x1="0%" y1="0%" x2="100%" y2="100%">
      <stop offset="0%" stop-color="#0ea5e9"/>
      <stop offset="100%" stop-color="#312e81"/>
    </linearGradient>
  </defs>
  <circle cx="64" cy="64" r="58" fill="url(#chronoGlow)"/>
  <circle cx="64" cy="64" r="40" fill="#020617" opacity="0.85"/>
  <circle cx="64" cy="64" r="34" fill="url(#chronoDial)"/>
  <path d="M64 30a4 4 0 0 1 4 4v20.2l16 9.2a4 4 0 1 1-4 6.9l-18-10.4a4 4 0 0 1-2-3.5V34a4 4 0 0 1 4-4z" fill="#f8fafc"/>
  <circle cx="64" cy="64" r="6" fill="#e0f2fe"/>
  <g fill="#38bdf8" opacity="0.8">
    <rect x="61" y="12" width="6" height="12" rx="3"/>
    <rect x="61" y="104" width="6" height="12" rx="3"/>
    <rect x="12" y="61" width="12" height="6" rx="3"/>
    <rect x="104" y="61" width="12" height="6" rx="3"/>
  </g>
</svg>
