<svg xmlns="http://www.w3.org/2000/svg" viewBox="0 0 160 160" role="img" aria-labelledby="title desc">
  <title id="title">Nebula Bloom Weapon Animation</title>
  <desc id="desc">A spiral bloom of radiant plasma petals representing an unlockable weapon animation.</desc>
  <defs>
    <radialGradient id="bloom-core" cx="50%" cy="50%" r="60%">
      <stop offset="0%" stop-color="#fff0ff" stop-opacity="0.95" />
      <stop offset="45%" stop-color="#f58cff" stop-opacity="0.9" />
      <stop offset="100%" stop-color="#682aff" stop-opacity="0.65" />
    </radialGradient>
    <linearGradient id="bloom-trail" x1="0%" y1="0%" x2="100%" y2="100%">
      <stop offset="0%" stop-color="#ffb2ff" stop-opacity="0.7" />
      <stop offset="100%" stop-color="#3ad6ff" stop-opacity="0.8" />
    </linearGradient>
    <filter id="soft-glow" x="-20%" y="-20%" width="140%" height="140%">
      <feGaussianBlur stdDeviation="6" result="blur" />
      <feMerge>
        <feMergeNode in="blur" />
        <feMergeNode in="SourceGraphic" />
      </feMerge>
    </filter>
  </defs>
  <rect width="160" height="160" rx="28" fill="#120c33" opacity="0.9" />
  <g filter="url(#soft-glow)" transform="translate(80 80)">
    <circle r="52" fill="url(#bloom-core)" />
    <g fill="none" stroke-linecap="round">
      <path d="M0,-44 C24,-32 36,-12 30,8 C18,44 -20,52 -44,22" stroke="url(#bloom-trail)" stroke-width="12" opacity="0.7" />
      <path d="M0,46 C-22,34 -34,14 -30,-6 C-18,-42 20,-50 44,-20" stroke="#ffe5f8" stroke-width="8" opacity="0.55" />
      <path d="M-6,-4 C-2,-28 22,-36 38,-24" stroke="#ffd27f" stroke-width="6" opacity="0.65" />
      <path d="M6,6 C2,30 -24,38 -40,24" stroke="#80fff3" stroke-width="6" opacity="0.55" />
    </g>
    <circle r="18" fill="#ffffff" opacity="0.92" />
    <circle r="10" fill="#ff82fb" opacity="0.85" />
  </g>
</svg>
