<svg xmlns="http://www.w3.org/2000/svg" viewBox="0 0 1600 900" preserveAspectRatio="xMidYMid slice">
  <defs>
    <radialGradient id="spaceGlow" cx="50%" cy="35%" r="70%">
      <stop offset="0%" stop-color="#182844" />
      <stop offset="65%" stop-color="#0d1426" />
      <stop offset="100%" stop-color="#050913" />
    </radialGradient>
    <linearGradient id="aurora" x1="0%" y1="0%" x2="100%" y2="100%">
      <stop offset="0%" stop-color="rgba(91, 139, 255, 0.4)" />
      <stop offset="40%" stop-color="rgba(157, 91, 255, 0.35)" />
      <stop offset="100%" stop-color="rgba(255, 169, 214, 0.3)" />
    </linearGradient>
    <g id="starCluster">
      <circle cx="4" cy="4" r="4" fill="#f8fbff" />
      <circle cx="42" cy="24" r="3" fill="#f8fbff" opacity="0.7" />
      <circle cx="20" cy="52" r="2.5" fill="#d7e6ff" />
      <circle cx="56" cy="44" r="2" fill="#ffe2fb" />
      <circle cx="36" cy="12" r="1.8" fill="#e3f1ff" opacity="0.85" />
      <circle cx="12" cy="32" r="1.5" fill="#f8fbff" opacity="0.6" />
    </g>
  </defs>
  <rect width="1600" height="900" fill="url(#spaceGlow)" />
  <rect width="1600" height="900" fill="url(#aurora)" />
  <g opacity="0.85">
    <use href="#starCluster" x="140" y="120" />
    <use href="#starCluster" x="420" y="220" transform="scale(1.2)" />
    <use href="#starCluster" x="840" y="60" transform="scale(0.9)" />
    <use href="#starCluster" x="1120" y="280" transform="scale(1.4)" />
    <use href="#starCluster" x="1280" y="180" transform="scale(0.8)" />
    <use href="#starCluster" x="200" y="420" transform="scale(1.1)" />
    <use href="#starCluster" x="620" y="380" transform="scale(0.75)" />
    <use href="#starCluster" x="980" y="420" transform="scale(1.05)" />
    <use href="#starCluster" x="1400" y="340" transform="scale(0.95)" />
  </g>
  <g opacity="0.45">
    <circle cx="240" cy="120" r="26" fill="#9ed7ff" />
    <circle cx="540" cy="260" r="18" fill="#ffd9fb" />
    <circle cx="760" cy="120" r="20" fill="#cde6ff" />
    <circle cx="1140" cy="220" r="16" fill="#ffe7d9" />
    <circle cx="1320" cy="160" r="22" fill="#e7d9ff" />
  </g>
</svg>
